<?xml version="1.0" standalone="no"?>
<!DOCTYPE svg PUBLIC "-//W3C//DTD SVG 20010904//EN"
 "http://www.w3.org/TR/2001/REC-SVG-20010904/DTD/svg10.dtd">
<svg version="1.0" xmlns="http://www.w3.org/2000/svg"
 width="976.000000pt" height="976.000000pt" viewBox="0 0 976.000000 976.000000"
 preserveAspectRatio="xMidYMid meet">
<metadata>
Created by potrace 1.14, written by Peter Selinger 2001-2017
</metadata>
<g transform="translate(0.000000,976.000000) scale(0.100000,-0.100000)"
fill="#000000" stroke="none">
<path d="M4800 8740 l0 -1020 888 2 887 3 3 1018 2 1017 -890 0 -890 0 0
-1020z"/>
<path d="M2130 6460 l0 -890 880 0 880 0 0 890 0 890 -880 0 -880 0 0 -890z"/>
<path d="M4805 4573 c5 -1106 4 -1515 -5 -1593 -23 -214 -68 -373 -161 -568
-125 -264 -258 -412 -464 -515 -165 -82 -319 -111 -595 -111 -570 0 -978 152
-1499 560 -102 80 -125 94 -136 83 -9 -11 -1049 -1296 -1097 -1356 -16 -20
366 -314 600 -462 592 -373 1200 -563 1925 -602 902 -49 1661 202 2226 736
452 427 790 1076 916 1760 60 328 58 268 62 1983 l4 1572 -892 0 -892 0 8
-1487z"/>
<path d="M6948 1382 c-214 -58 -348 -275 -348 -561 0 -193 53 -343 155 -445
206 -207 551 -142 679 127 84 176 89 454 11 625 -96 208 -293 309 -497 254z
m206 -183 c47 -31 92 -98 114 -169 25 -82 24 -323 -2 -404 -41 -125 -120 -196
-216 -196 -100 0 -179 74 -221 208 -24 80 -29 257 -9 343 27 114 86 204 155
236 46 21 136 12 179 -18z"/>
<path d="M7660 825 l0 -556 98 3 97 3 0 550 0 550 -97 3 -98 3 0 -556z"/>
<path d="M8070 825 l0 -556 88 3 87 3 -3 410 -3 410 33 -80 c17 -44 107 -228
198 -410 l167 -330 101 -3 102 -3 0 556 0 555 -92 0 -91 0 6 -377 c3 -208 9
-387 13 -398 5 -14 4 -17 -4 -10 -6 6 -25 45 -42 89 -27 69 -238 497 -317 643
l-28 53 -107 0 -108 0 0 -555z"/>
</g>
</svg>
