<svg width="25" height="25" viewBox="0 0 25 25" fill="none" xmlns="http://www.w3.org/2000/svg">
<g id="event">
<mask id="mask0_79394_2159" style="mask-type:alpha" maskUnits="userSpaceOnUse" x="0" y="0" width="25" height="25">
<rect id="Bounding box" x="0.682129" y="0.396729" width="24" height="24" fill="#D9D9D9"/>
</mask>
<g mask="url(#mask0_79394_2159)">
<path id="event_2" d="M15.1821 18.3967C14.4821 18.3967 13.8905 18.1551 13.4071 17.6717C12.9238 17.1884 12.6821 16.5967 12.6821 15.8967C12.6821 15.1967 12.9238 14.6051 13.4071 14.1217C13.8905 13.6384 14.4821 13.3967 15.1821 13.3967C15.8821 13.3967 16.4738 13.6384 16.9571 14.1217C17.4405 14.6051 17.6821 15.1967 17.6821 15.8967C17.6821 16.5967 17.4405 17.1884 16.9571 17.6717C16.4738 18.1551 15.8821 18.3967 15.1821 18.3967ZM5.68213 22.3967C5.13213 22.3967 4.6613 22.2009 4.26963 21.8092C3.87796 21.4176 3.68213 20.9467 3.68213 20.3967V6.39673C3.68213 5.84673 3.87796 5.3759 4.26963 4.98423C4.6613 4.59256 5.13213 4.39673 5.68213 4.39673H6.68213V3.39673C6.68213 3.1134 6.77796 2.8759 6.96963 2.68423C7.1613 2.49256 7.3988 2.39673 7.68213 2.39673C7.96546 2.39673 8.20296 2.49256 8.39463 2.68423C8.5863 2.8759 8.68213 3.1134 8.68213 3.39673V4.39673H16.6821V3.39673C16.6821 3.1134 16.778 2.8759 16.9696 2.68423C17.1613 2.49256 17.3988 2.39673 17.6821 2.39673C17.9655 2.39673 18.203 2.49256 18.3946 2.68423C18.5863 2.8759 18.6821 3.1134 18.6821 3.39673V4.39673H19.6821C20.2321 4.39673 20.703 4.59256 21.0946 4.98423C21.4863 5.3759 21.6821 5.84673 21.6821 6.39673V20.3967C21.6821 20.9467 21.4863 21.4176 21.0946 21.8092C20.703 22.2009 20.2321 22.3967 19.6821 22.3967H5.68213ZM5.68213 20.3967H19.6821V10.3967H5.68213V20.3967ZM5.68213 8.39673H19.6821V6.39673H5.68213V8.39673Z" fill="#2A3647"/>
</g>
</g>
</svg>
