<svg width="25" height="25" viewBox="0 0 25 25" fill="none" xmlns="http://www.w3.org/2000/svg">
<path d="M18.7945 4.19207L18.7945 20.8075C18.7941 21.2969 18.5994 21.7662 18.2533 22.1124C17.9072 22.4585 17.4379 22.6531 16.9484 22.6536L13.2561 22.6536C12.7666 22.6531 12.2973 22.4585 11.9512 22.1124C11.6051 21.7662 11.4104 21.2969 11.4099 20.8075L11.4099 4.19207C11.4104 3.70259 11.6051 3.2333 11.9512 2.88719C12.2973 2.54107 12.7666 2.34641 13.2561 2.34592L16.9484 2.34592C17.4379 2.34641 17.9072 2.54107 18.2533 2.88719C18.5994 3.2333 18.7941 3.70259 18.7945 4.19207ZM13.2561 20.8075L16.9484 20.8075L16.9484 4.19207L13.2561 4.19207L13.2561 20.8075ZM13.2561 4.19207L13.2561 20.8075C13.2556 21.2969 13.0609 21.7662 12.7148 22.1123C12.3687 22.4584 11.8994 22.6531 11.4099 22.6536L7.71762 22.6536C7.22814 22.6531 6.75885 22.4584 6.41274 22.1123C6.06662 21.7662 5.87196 21.2969 5.87147 20.8074L5.87147 4.19206C5.87196 3.70258 6.06662 3.23328 6.41273 2.88717C6.75885 2.54105 7.22814 2.34639 7.71762 2.3459L11.4099 2.3459C11.8994 2.34639 12.3687 2.54105 12.7148 2.88717C13.0609 3.23328 13.2556 3.70259 13.2561 4.19207ZM7.71762 20.8074L11.4099 20.8075L11.4099 4.19207L7.71762 4.19206L7.71762 20.8074ZM7.71762 4.19206L7.71762 20.8074C7.71713 21.2969 7.52247 21.7662 7.17636 22.1123C6.83024 22.4584 6.36095 22.6531 5.87147 22.6536L2.17916 22.6536C1.68968 22.6531 1.22039 22.4584 0.874273 22.1123C0.528158 21.7662 0.333497 21.2969 0.333008 20.8074L0.333007 4.19206C0.333496 3.70258 0.528158 3.23328 0.874273 2.88717C1.22039 2.54105 1.68968 2.34639 2.17916 2.3459L5.87147 2.3459C6.36095 2.34639 6.83024 2.54105 7.17636 2.88717C7.52247 3.23328 7.71713 3.70258 7.71762 4.19206ZM2.17916 20.8074L5.87147 20.8074L5.87147 4.19206L2.17916 4.19206L2.17916 20.8074Z" fill="#CDCDCD"/>
<path d="M24.333 4.19228L24.333 20.8077C24.3325 21.2971 24.1379 21.7664 23.7917 22.1125C23.4456 22.4587 22.9763 22.6533 22.4869 22.6538L18.7945 22.6538C18.3051 22.6533 17.8358 22.4587 17.4897 22.1125C17.1435 21.7664 16.9489 21.2969 16.9484 20.8075L16.9484 4.19207C16.9489 3.70259 17.1435 3.2335 17.4897 2.88739C17.8358 2.54127 18.3051 2.34661 18.7945 2.34612L22.4869 2.34612C22.9763 2.34661 23.4456 2.54127 23.7917 2.88739C24.1379 3.2335 24.3325 3.7028 24.333 4.19228ZM18.7945 20.8075L22.4869 20.8077L22.4869 4.19228L18.7945 4.19207L18.7945 20.8075Z" fill="#CDCDCD"/>
</svg>
