<svg xmlns="http://www.w3.org/2000/svg" width="21" height="9" viewBox="0 0 21 9" fill="none">
  <g clip-path="url(#clip0_80268_4982)">
    <path d="M19.4041 8.22528H1.59589C1.30524 8.22528 1.0265 8.10898 0.820979 7.90197C0.61546 7.69495 0.5 7.41419 0.5 7.12143C0.5 6.82867 0.61546 6.5479 0.820979 6.34089C1.0265 6.13388 1.30524 6.01758 1.59589 6.01758H19.4041C19.6948 6.01758 19.9735 6.13388 20.179 6.34089C20.3845 6.5479 20.5 6.82867 20.5 7.12143C20.5 7.41419 20.3845 7.69495 20.179 7.90197C19.9735 8.10898 19.6948 8.22528 19.4041 8.22528Z" fill="#FFA800"/>
    <path d="M19.4041 2.98211H1.59589C1.30524 2.98211 1.0265 2.86581 0.820979 2.6588C0.61546 2.45179 0.5 2.17102 0.5 1.87826C0.5 1.5855 0.61546 1.30474 0.820979 1.09772C1.0265 0.890712 1.30524 0.774414 1.59589 0.774414L19.4041 0.774414C19.6948 0.774414 19.9735 0.890712 20.179 1.09772C20.3845 1.30474 20.5 1.5855 20.5 1.87826C20.5 2.17102 20.3845 2.45179 20.179 2.6588C19.9735 2.86581 19.6948 2.98211 19.4041 2.98211Z" fill="#FFA800"/>
  </g>
  <defs>
    <clipPath id="clip0_80268_4982">
      <rect width="20" height="7.45098" fill="white" transform="translate(0.5 0.774414)"/>
    </clipPath>
  </defs>
</svg>